<svg xmlns="http://www.w3.org/2000/svg" viewBox="0 0 1048 1048" width="1048" height="1048" font-family="-apple-system, 'SF Pro Text', 'Helvetica Neue', Arial, sans-serif"><defs>
 <linearGradient id="bg" x1="0" y1="0" x2="0" y2="1">
   <stop offset="0" stop-color="#F2F3F5"/><stop offset="1" stop-color="#E8EAEE"/>
 </linearGradient>
 <linearGradient id="appgrad" x1="0" y1="0" x2="0" y2="1">
   <stop offset="0" stop-color="#3DA0FF"/><stop offset="1" stop-color="#0A6CF0"/>
 </linearGradient>
 <filter id="winshadow" x="-20%" y="-20%" width="140%" height="140%">
   <feDropShadow dx="0" dy="8" stdDeviation="16" flood-color="#000000" flood-opacity="0.16"/>
 </filter>
 <filter id="popshadow" x="-40%" y="-40%" width="180%" height="180%">
   <feDropShadow dx="0" dy="3" stdDeviation="6" flood-color="#000000" flood-opacity="0.22"/>
 </filter>
</defs><rect x="0" y="0" width="1048" height="1048" fill="url(#bg)"/><g transform="translate(0,154)"><rect x="24" y="24" width="1000" height="628" rx="12" fill="#FFFFFF" filter="url(#winshadow)"/><clipPath id="winclip"><rect x="24" y="24" width="1000" height="628" rx="12"/></clipPath><g clip-path="url(#winclip)"><rect x="24.0" y="24.0" width="240.0" height="628.0" rx="0.0" ry="0.0" fill="#E9E9EC" stroke="none" stroke-width="1" opacity="1"/><rect x="264.0" y="24.0" width="760.0" height="52.0" rx="0.0" ry="0.0" fill="#F4F4F6" stroke="none" stroke-width="1" opacity="1"/><line x1="264.0" y1="76.0" x2="1024.0" y2="76.0" stroke="#D5D5DA" stroke-width="1" stroke-linecap="round" opacity="1"/><line x1="264.0" y1="24.0" x2="264.0" y2="652.0" stroke="#D5D5DA" stroke-width="1" stroke-linecap="round" opacity="1"/></g><circle cx="46.0" cy="46.0" r="6.0" fill="#FF3B30" stroke="none" stroke-width="1" opacity="1"/><circle cx="66.0" cy="46.0" r="6.0" fill="#FF9F0A" stroke="none" stroke-width="1" opacity="1"/><circle cx="86.0" cy="46.0" r="6.0" fill="#28C840" stroke="none" stroke-width="1" opacity="1"/><path d="M290,44 L284,50 L290,56" fill="none" stroke="#86868B" stroke-width="2" stroke-linecap="round" stroke-linejoin="round" opacity="1"/><path d="M306,44 L312,50 L306,56" fill="none" stroke="#AEAEB2" stroke-width="2" stroke-linecap="round" stroke-linejoin="round" opacity="1"/><rect x="464.0" y="37.0" width="360.0" height="26.0" rx="7.0" ry="7.0" fill="#E4E4E8" stroke="none" stroke-width="1" opacity="0.4"/><text x="500.0" y="54.0" font-family="-apple-system, 'SF Pro Text', 'Helvetica Neue', Arial, sans-serif" font-size="12" font-weight="600" fill="#86868B" text-anchor="middle" opacity="0.4" letter-spacing="normal" style="dominant-baseline:auto">Project</text><text x="572.0" y="54.0" font-family="-apple-system, 'SF Pro Text', 'Helvetica Neue', Arial, sans-serif" font-size="12" font-weight="500" fill="#86868B" text-anchor="middle" opacity="0.4" letter-spacing="normal" style="dominant-baseline:auto">Sessions</text><text x="644.0" y="54.0" font-family="-apple-system, 'SF Pro Text', 'Helvetica Neue', Arial, sans-serif" font-size="12" font-weight="500" fill="#86868B" text-anchor="middle" opacity="0.4" letter-spacing="normal" style="dominant-baseline:auto">Quotes</text><text x="716.0" y="54.0" font-family="-apple-system, 'SF Pro Text', 'Helvetica Neue', Arial, sans-serif" font-size="12" font-weight="500" fill="#86868B" text-anchor="middle" opacity="0.4" letter-spacing="normal" style="dominant-baseline:auto">Codebook</text><text x="788.0" y="54.0" font-family="-apple-system, 'SF Pro Text', 'Helvetica Neue', Arial, sans-serif" font-size="12" font-weight="500" fill="#86868B" text-anchor="middle" opacity="0.4" letter-spacing="normal" style="dominant-baseline:auto">Analysis</text><circle cx="954.0" cy="48.0" r="7.0" fill="none" stroke="#86868B" stroke-width="2" opacity="1"/><line x1="959.0" y1="53.0" x2="963.0" y2="57.0" stroke="#86868B" stroke-width="2" stroke-linecap="round" opacity="1"/><path d="M980,42 v14 M974,48 L980,42 L986,48" fill="none" stroke="#86868B" stroke-width="2" stroke-linecap="round" stroke-linejoin="round" opacity="1"/><g clip-path="url(#winclip)"><text x="42.0" y="110.0" font-family="-apple-system, 'SF Pro Text', 'Helvetica Neue', Arial, sans-serif" font-size="11" font-weight="600" fill="#86868B" text-anchor="start" opacity="1" letter-spacing="0.4" style="dominant-baseline:auto">Projects</text><rect x="610.0" y="132.0" width="68.0" height="68.0" rx="16.0" ry="16.0" fill="url(#appgrad)" stroke="none" stroke-width="1" opacity="1"/><g transform="translate(610.0,132.0)"><path d="M20,36 q14,-15 34,0 q-14,15 -34,0 Z" fill="#FFFFFF" stroke="none" stroke-width="1.5" stroke-linecap="round" stroke-linejoin="round" opacity="1"/><path d="M52,36 l9,-7 v14 Z" fill="#FFFFFF" stroke="none" stroke-width="1.5" stroke-linecap="round" stroke-linejoin="round" opacity="1"/><circle cx="30.0" cy="33.0" r="2.2" fill="#0A84FF" stroke="none" stroke-width="1" opacity="1"/><line x1="20.0" y1="38.0" x2="12.0" y2="44.0" stroke="#FFFFFF" stroke-width="2" stroke-linecap="round" opacity="1"/><line x1="20.0" y1="40.0" x2="12.0" y2="48.0" stroke="#FFFFFF" stroke-width="2" stroke-linecap="round" opacity="1"/></g><text x="644.0" y="232.0" font-family="-apple-system, 'SF Pro Text', 'Helvetica Neue', Arial, sans-serif" font-size="22" font-weight="700" fill="#1D1D1F" text-anchor="middle" opacity="1" letter-spacing="normal" style="dominant-baseline:auto">Welcome to Bristlenose</text><text x="644.0" y="258.0" font-family="-apple-system, 'SF Pro Text', 'Helvetica Neue', Arial, sans-serif" font-size="13" font-weight="400" fill="#86868B" text-anchor="middle" opacity="1" letter-spacing="normal" style="dominant-baseline:auto">Turn a folder of interviews into a report you can share — on your laptop, nothing uploaded.</text><rect x="446.0" y="286.0" width="188.0" height="96.0" rx="12.0" ry="12.0" fill="#F5F5F7" stroke="#0A84FF" stroke-width="1.5" opacity="1"/><circle cx="540.0" cy="322.0" r="16.0" fill="none" stroke="#0A84FF" stroke-width="2" opacity="1"/><line x1="533.0" y1="322.0" x2="547.0" y2="322.0" stroke="#0A84FF" stroke-width="2" stroke-linecap="round" opacity="1"/><line x1="540.0" y1="315.0" x2="540.0" y2="329.0" stroke="#0A84FF" stroke-width="2" stroke-linecap="round" opacity="1"/><text x="540.0" y="362.0" font-family="-apple-system, 'SF Pro Text', 'Helvetica Neue', Arial, sans-serif" font-size="14" font-weight="600" fill="#1D1D1F" text-anchor="middle" opacity="1" letter-spacing="normal" style="dominant-baseline:auto">New Project</text><rect x="654.0" y="286.0" width="188.0" height="96.0" rx="12.0" ry="12.0" fill="#F5F5F7" stroke="#AEAEB2" stroke-width="1.5" opacity="1" stroke-dasharray="5 4"/><g transform="translate(726.0,298.0)"><path d="M14,42 v6 a4,4 0 0 0 4,4 h36 a4,4 0 0 0 4,-4 v-6" fill="none" stroke="#86868B" stroke-width="2.4" stroke-linecap="round" stroke-linejoin="round" opacity="1"/><line x1="36.0" y1="14.0" x2="36.0" y2="40.0" stroke="#86868B" stroke-width="2.4" stroke-linecap="round" opacity="1"/><path d="M27,31 L36,40 L45,31" fill="none" stroke="#86868B" stroke-width="2.4" stroke-linecap="round" stroke-linejoin="round" opacity="1"/></g><text x="748.0" y="362.0" font-family="-apple-system, 'SF Pro Text', 'Helvetica Neue', Arial, sans-serif" font-size="14" font-weight="600" fill="#1D1D1F" text-anchor="middle" opacity="1" letter-spacing="normal" style="dominant-baseline:auto">Drop a folder</text><text x="644.0" y="416.0" font-family="-apple-system, 'SF Pro Text', 'Helvetica Neue', Arial, sans-serif" font-size="13" font-weight="500" fill="#0A84FF" text-anchor="middle" opacity="1" letter-spacing="normal" style="dominant-baseline:auto">Review AI &amp; privacy settings…</text></g><text x="24.0" y="686.0" font-family="-apple-system, 'SF Pro Text', 'Helvetica Neue', Arial, sans-serif" font-size="15" font-weight="700" fill="#1D1D1F" text-anchor="start" opacity="1" letter-spacing="normal" style="dominant-baseline:auto">N11-welcome-firstrun</text><text x="238.0" y="686.0" font-family="-apple-system, 'SF Pro Text', 'Helvetica Neue', Arial, sans-serif" font-size="14" font-weight="500" fill="#86868B" text-anchor="start" opacity="1" letter-spacing="normal" style="dominant-baseline:auto">· Welcome / first run (zero projects)</text><rect x="942.4" y="670.0" width="81.6" height="24.0" rx="12.0" ry="12.0" fill="#E7F8EC" stroke="none" stroke-width="1" opacity="1"/><text x="983.2" y="686.0" font-family="-apple-system, 'SF Pro Text', 'Helvetica Neue', Arial, sans-serif" font-size="12" font-weight="700" fill="#1A7F37" text-anchor="middle" opacity="1" letter-spacing="normal" style="dominant-baseline:auto">Designed</text></g></svg>