<svg width="28" height="26" viewBox="0 0 256 242" xmlns="http://www.w3.org/2000/svg">
    <g fill="black">
        <path d="M85.343,0.003 L161.096,0.003 L82.457,233.001 C80.8,237.91 76.196,241.217 71.015,241.217 L12.061,241.217 C8.176,241.217 4.53,239.347 2.264,236.192 C-0.002,233.037 -0.609,228.983 0.633,225.303 L73.898,8.219 C75.555,3.307 80.16,0 85.343,0 Z"/>
        <path d="M195.423,156.282 L75.297,156.282 C73.012,156.28 70.958,157.676 70.119,159.802 C69.281,161.929 69.829,164.351 71.501,165.909 L148.691,237.956 C150.938,240.052 153.897,241.217 156.971,241.217 L224.99,241.217 Z"/>
        <path d="M85.343,0.003 C80.098,-0.017 75.45,3.377 73.872,8.379 L0.723,225.105 C-0.603,228.8 -0.044,232.909 2.219,236.117 C4.482,239.324 8.167,241.228 12.093,241.217 L72.568,241.217 C77.154,240.398 80.944,237.174 82.489,232.78 L97.077,189.789 L149.182,238.389 C151.366,240.195 154.105,241.194 156.939,241.217 L224.705,241.217 L194.984,156.282 L108.341,156.303 L161.369,0.003 Z" opacity="0.25"/>
        <path d="M182.098,8.207 C180.444,3.304 175.846,0.003 170.67,0.003 L86.245,0.003 C91.42,0.003 96.018,3.304 97.673,8.207 L170.941,225.3 C172.184,228.981 171.577,233.036 169.311,236.192 C167.046,239.348 163.398,241.22 159.513,241.22 L243.942,241.22 C247.826,241.22 251.473,239.347 253.738,236.191 C256.002,233.034 256.609,228.981 255.366,225.3 Z"/>
    </g>
</svg>
