<svg width="20" height="30" viewBox="0 0 17 25" xmlns="http://www.w3.org/2000/svg">
<path fill-rule="evenodd" clip-rule="evenodd" d="M4.405,0.102 C4.621,0.199 4.816,0.358 4.993,0.568 C5.288,0.916 5.537,1.413 5.727,2.003 C5.918,2.596 6.042,3.253 6.089,3.912 C6.719,3.508 7.418,3.261 8.138,3.19 L8.189,3.185 C9.059,3.105 9.919,3.284 10.669,3.724 C10.77,3.784 10.869,3.849 10.966,3.917 C11.016,3.27 11.138,2.628 11.326,2.049 C11.516,1.458 11.765,0.961 12.059,0.612 C12.224,0.41 12.425,0.251 12.648,0.146 C12.905,0.033 13.178,0.012 13.444,0.099 C13.845,0.228 14.189,0.517 14.46,0.936 C14.708,1.319 14.894,1.81 15.021,2.399 C15.251,3.46 15.291,4.857 15.136,6.541 L15.189,6.586 L15.215,6.608 C15.972,7.262 16.499,8.195 16.778,9.278 C17.213,10.968 16.994,12.863 16.244,13.924 L16.226,13.947 L16.228,13.951 C16.645,14.817 16.898,15.731 16.952,16.678 L16.954,16.712 C17.018,17.922 16.754,19.14 16.14,20.337 L16.133,20.348 L16.143,20.376 C16.615,21.69 16.763,23.014 16.581,24.337 L16.575,24.381 C16.547,24.574 16.453,24.747 16.313,24.861 C16.173,24.975 15.998,25.022 15.828,24.99 C15.744,24.975 15.663,24.942 15.59,24.891 C15.518,24.841 15.454,24.774 15.404,24.696 C15.354,24.618 15.318,24.529 15.298,24.435 C15.278,24.341 15.275,24.243 15.288,24.147 C15.455,22.973 15.298,21.796 14.808,20.598 C14.763,20.487 14.742,20.365 14.749,20.242 C14.756,20.119 14.79,20.001 14.848,19.897 L14.852,19.89 C15.456,18.84 15.706,17.811 15.652,16.8 C15.606,15.914 15.327,15.045 14.852,14.217 C14.76,14.056 14.727,13.86 14.761,13.671 C14.794,13.483 14.892,13.317 15.032,13.21 L15.041,13.203 C15.284,13.022 15.508,12.561 15.621,11.93 C15.746,11.185 15.713,10.416 15.526,9.687 C15.321,8.892 14.946,8.228 14.421,7.775 C13.826,7.259 13.038,7.01 12.041,7.082 C11.911,7.091 11.781,7.056 11.668,6.981 C11.556,6.906 11.465,6.794 11.409,6.66 C11.095,5.904 10.637,5.363 10.066,5.028 C9.518,4.717 8.904,4.587 8.294,4.651 C7.049,4.763 5.951,5.561 5.624,6.567 C5.578,6.708 5.495,6.83 5.386,6.917 C5.277,7.003 5.147,7.049 5.014,7.05 C3.947,7.052 3.121,7.336 2.517,7.849 C1.995,8.292 1.639,8.911 1.451,9.653 C1.281,10.352 1.258,11.086 1.383,11.796 C1.495,12.43 1.714,12.955 1.965,13.238 L1.973,13.246 C2.185,13.481 2.23,13.849 2.082,14.138 C1.722,14.845 1.453,15.898 1.409,16.911 C1.359,18.068 1.595,19.072 2.128,19.793 L2.144,19.814 C2.225,19.921 2.276,20.051 2.293,20.191 C2.31,20.33 2.291,20.471 2.239,20.598 C1.663,22.003 1.486,23.157 1.677,24.067 C1.711,24.256 1.68,24.452 1.588,24.615 C1.497,24.778 1.353,24.893 1.188,24.937 C1.022,24.982 0.848,24.951 0.703,24.851 C0.557,24.752 0.451,24.592 0.408,24.405 C0.165,23.248 0.33,21.923 0.881,20.43 L0.895,20.39 L0.887,20.377 C0.616,19.922 0.414,19.42 0.289,18.889 L0.284,18.868 C0.132,18.206 0.073,17.522 0.107,16.839 C0.151,15.805 0.385,14.746 0.729,13.896 L0.741,13.867 L0.739,13.864 C0.446,13.389 0.229,12.781 0.109,12.109 L0.104,12.081 C-0.061,11.143 -0.029,10.174 0.197,9.252 C0.459,8.212 0.974,7.319 1.733,6.674 C1.793,6.622 1.856,6.571 1.919,6.524 C1.76,4.827 1.8,3.421 2.031,2.353 C2.158,1.765 2.345,1.274 2.593,0.891 C2.863,0.473 3.207,0.184 3.608,0.053 C3.874,-0.033 4.148,-0.013 4.405,0.102 Z M8.521,10.432 C9.457,10.432 10.321,10.787 10.967,11.403 C11.597,12.002 11.972,12.806 11.972,13.608 C11.972,14.617 11.566,15.403 10.839,15.905 C10.219,16.331 9.388,16.538 8.436,16.538 C7.427,16.538 6.565,16.244 5.943,15.704 C5.326,15.17 4.98,14.42 4.98,13.608 C4.98,12.804 5.378,11.997 6.036,11.396 C6.704,10.786 7.586,10.432 8.521,10.432 Z M8.521,11.45 C7.827,11.443 7.152,11.703 6.605,12.188 C6.144,12.609 5.883,13.137 5.883,13.609 C5.883,14.095 6.093,14.551 6.493,14.897 C6.948,15.292 7.617,15.52 8.436,15.52 C9.235,15.52 9.909,15.353 10.368,15.036 C10.831,14.718 11.068,14.256 11.068,13.608 C11.068,13.127 10.822,12.596 10.385,12.18 C9.901,11.72 9.245,11.45 8.521,11.45 Z M9.183,12.825 L9.187,12.829 C9.307,13.001 9.282,13.25 9.131,13.386 L8.839,13.647 L8.839,14.154 C8.839,14.267 8.799,14.375 8.728,14.454 C8.658,14.534 8.562,14.578 8.463,14.578 C8.364,14.578 8.269,14.534 8.198,14.454 C8.128,14.375 8.088,14.267 8.087,14.154 L8.087,13.631 L7.816,13.384 C7.78,13.351 7.751,13.311 7.729,13.265 C7.707,13.22 7.693,13.169 7.688,13.118 C7.683,13.066 7.688,13.014 7.701,12.964 C7.714,12.914 7.735,12.867 7.764,12.827 C7.823,12.745 7.908,12.693 8.001,12.683 C8.093,12.672 8.186,12.703 8.258,12.769 L8.473,12.964 L8.693,12.767 C8.765,12.702 8.857,12.672 8.949,12.683 C9.04,12.693 9.124,12.744 9.183,12.825 Z M4.143,10.644 C4.621,10.644 5.01,11.087 5.01,11.634 C5.01,11.896 4.919,12.147 4.756,12.333 C4.594,12.518 4.373,12.623 4.142,12.624 C3.912,12.623 3.691,12.518 3.529,12.333 C3.366,12.147 3.275,11.897 3.275,11.635 C3.275,11.373 3.366,11.121 3.528,10.936 C3.691,10.75 3.913,10.645 4.143,10.644 Z M12.849,10.644 C13.329,10.644 13.717,11.087 13.717,11.634 C13.718,11.896 13.626,12.147 13.463,12.333 C13.301,12.518 13.08,12.623 12.849,12.624 C12.619,12.623 12.399,12.518 12.236,12.333 C12.073,12.147 11.982,11.897 11.982,11.635 C11.982,11.373 12.073,11.121 12.235,10.936 C12.398,10.75 12.619,10.645 12.849,10.644 Z M3.94,1.477 L3.937,1.479 C3.821,1.537 3.722,1.63 3.652,1.75 L3.647,1.757 C3.509,1.971 3.389,2.287 3.299,2.702 C3.129,3.488 3.083,4.555 3.175,5.863 C3.605,5.718 4.074,5.627 4.579,5.594 L4.589,5.593 L4.608,5.554 C4.654,5.461 4.703,5.371 4.756,5.283 C4.879,4.407 4.778,3.36 4.503,2.505 C4.369,2.092 4.206,1.767 4.05,1.582 C4.018,1.543 3.982,1.509 3.943,1.479 Z M13.114,1.523 L13.112,1.524 C13.073,1.553 13.037,1.587 13.005,1.626 C12.849,1.811 12.685,2.137 12.552,2.551 C12.262,3.453 12.165,4.569 12.322,5.474 L12.38,5.584 L12.388,5.6 L12.418,5.6 C12.915,5.6 13.408,5.681 13.884,5.841 C13.97,4.563 13.922,3.519 13.756,2.747 C13.666,2.333 13.546,2.017 13.407,1.802 L13.403,1.795 C13.333,1.675 13.234,1.581 13.118,1.524 Z" fill="black"/>
</svg>
